<svg id="Score_Icon" data-name="Score Icon" xmlns="http://www.w3.org/2000/svg" width="88.603" height="83.181" viewBox="0 0 88.603 83.181">
  <g id="Scores">
    <path id="Path_1" data-name="Path 1" d="M86.162,195.918H2.441c-1.346,0-2.441,1.4-2.441,3.123v66.6c0,1.722,1.095,3.123,2.441,3.123H23.967v8.949a1.264,1.264,0,0,0,1.084,1.388h38.5a1.264,1.264,0,0,0,1.084-1.388v-8.949H86.162c1.346,0,2.441-1.4,2.441-3.123v-66.6C88.6,197.319,87.508,195.918,86.162,195.918Zm-.272,69.375H2.712v-65.9H85.891Z" transform="translate(0 -195.918)"/>
    <path id="Path_2" data-name="Path 2" d="M136.6,437.925a1.581,1.581,0,0,0,1.356-1.735V397.617a1.4,1.4,0,1,0-2.712,0V436.19A1.581,1.581,0,0,0,136.6,437.925Z" transform="translate(-127.1 -380.481)"/>
    <path id="Path_3" data-name="Path 3" d="M520.916,437.925a1.581,1.581,0,0,0,1.356-1.735V397.617a1.4,1.4,0,1,0-2.712,0V436.19A1.581,1.581,0,0,0,520.916,437.925Z" transform="translate(-488.283 -380.481)"/>
    <path id="Path_4" data-name="Path 4" d="M187.039,332.7H204.1a1.788,1.788,0,0,0,0-3.47H187.039a1.788,1.788,0,0,0,0,3.47Z" transform="translate(-174.505 -318.96)"/>
    <path id="Path_5" data-name="Path 5" d="M187.039,966.823H204.1a1.788,1.788,0,0,0,0-3.47H187.039a1.788,1.788,0,0,0,0,3.47Z" transform="translate(-174.505 -904.245)"/>
    <path id="Path_6" data-name="Path 6" d="M955.413,332.7h17.062a1.788,1.788,0,0,0,0-3.47H955.413a1.788,1.788,0,0,0,0,3.47Z" transform="translate(-896.624 -318.96)"/>
    <path id="Path_7" data-name="Path 7" d="M1292.9,408.656a1.581,1.581,0,0,0,1.356-1.735V392.214a1.4,1.4,0,1,0-2.712,0v14.708A1.581,1.581,0,0,0,1292.9,408.656Z" transform="translate(-1213.791 -375.494)"/>
    <path id="Path_8" data-name="Path 8" d="M619.268,651.561h11.5a1.788,1.788,0,0,0,0-3.47h-11.5a1.788,1.788,0,0,0,0,3.47Z" transform="translate(-580.714 -613.265)"/>
    <path id="Path_9" data-name="Path 9" d="M1292.9,730.223a1.581,1.581,0,0,0,1.356-1.735V713.78a1.4,1.4,0,1,0-2.712,0v14.708A1.581,1.581,0,0,0,1292.9,730.223Z" transform="translate(-1213.791 -672.293)"/>
    <path id="Path_10" data-name="Path 10" d="M955.413,970.426h17.062a1.788,1.788,0,0,0,0-3.47H955.413a1.788,1.788,0,0,0,0,3.47Z" transform="translate(-896.624 -907.57)"/>
    <path id="Path_11" data-name="Path 11" d="M955.413,651.561h17.062a1.788,1.788,0,0,0,0-3.47H955.413a1.788,1.788,0,0,0,0,3.47Z" transform="translate(-896.624 -613.265)"/>
  </g>
</svg>
