<svg id="Feed_Icon" data-name="Feed Icon" xmlns="http://www.w3.org/2000/svg" width="116" height="83" viewBox="0 0 116 83">
  <path id="Feed_Icon-2" data-name="Feed Icon" d="M35.743,82.383,2.992,55.715c-3.987-3.22-3.987-10.2,0-13.248L49.919,4.358c3.775-3.048,12.185-3.048,15.935,0l47.154,38.114c3.992,3.224,3.992,10.2,0,13.252L80.243,82.391a13.565,13.565,0,0,1-8.192,2.681H43.5A12.759,12.759,0,0,1,35.743,82.383ZM65.632,72a1.411,1.411,0,0,0,0-2.149l-6.419-5.19a2.222,2.222,0,0,0-2.653,0l-6.423,5.155a1.363,1.363,0,0,0,0,2.11l5.094,3.927h5.312l5.147-3.986L65.632,72Zm0-22.013a1.138,1.138,0,0,0,0-1.61l-6.863-5.506a1.992,1.992,0,0,0-1.991,0L36.859,58.99a1.62,1.62,0,0,0,0,2.349l4.635,3.752h5.326L65.637,50.025V49.99Zm0-21.833c.445-.356.662-1.43,0-1.79L58.986,21a2.556,2.556,0,0,0-2.426,0L23.142,48.021c-.454.352-.677,1.4-.237,1.755l5.317,4.1h5.089Z" transform="translate(-0.002 -2.071)"/>
</svg>
